<?xml version="1.0" encoding="us-ascii" standalone="no"?><svg xmlns="http://www.w3.org/2000/svg" xmlns:xlink="http://www.w3.org/1999/xlink" contentStyleType="text/css" height="487px" preserveAspectRatio="none" style="width:847px;height:487px;background:#FFFFFF;" version="1.1" viewBox="0 0 847 487" width="847px" zoomAndPan="magnify"><defs/><g><rect fill="#ADD8E6" height="475.1504" style="stroke:#181818;stroke-width:0.5;" width="830.5" x="11" y="6"/><text fill="#000000" font-family="sans-serif" font-size="13" font-weight="bold" lengthAdjust="spacing" textLength="4" x="424.25" y="18.5684">&#160;</text><rect fill="#90EE90" height="454.8398" style="stroke:#181818;stroke-width:0.5;" width="75" x="263" y="26.3105"/><text fill="#000000" font-family="sans-serif" font-size="13" font-weight="bold" lengthAdjust="spacing" textLength="4" x="298.5" y="38.8789">&#160;</text><line style="stroke:#181818;stroke-width:0.5;stroke-dasharray:5.0,5.0;" x1="71.5" x2="71.5" y1="108.1094" y2="412.6621"/><line style="stroke:#181818;stroke-width:0.5;stroke-dasharray:5.0,5.0;" x1="197.5" x2="197.5" y1="108.1094" y2="412.6621"/><line style="stroke:#181818;stroke-width:0.5;stroke-dasharray:5.0,5.0;" x1="300.5" x2="300.5" y1="108.1094" y2="412.6621"/><line style="stroke:#181818;stroke-width:0.5;stroke-dasharray:5.0,5.0;" x1="446.5" x2="446.5" y1="108.1094" y2="412.6621"/><line style="stroke:#181818;stroke-width:0.5;stroke-dasharray:5.0,5.0;" x1="593.5" x2="593.5" y1="108.1094" y2="412.6621"/><line style="stroke:#181818;stroke-width:0.5;stroke-dasharray:5.0,5.0;" x1="799.5" x2="799.5" y1="108.1094" y2="412.6621"/><rect fill="#E2E2F0" height="30.4883" rx="2.5" ry="2.5" style="stroke:#181818;stroke-width:0.5;" width="113" x="15" y="76.6211"/><text fill="#000000" font-family="sans-serif" font-size="14" lengthAdjust="spacing" textLength="99" x="22" y="97.1563">Hotwheels Car</text><text fill="#000000" font-family="sans-serif" font-size="14" lengthAdjust="spacing" textLength="113" x="138" y="105.1563">Arduino UNO R4</text><path d="M177,63.6211 L177,87.6211 M177,75.6211 L194,75.6211 " fill="none" style="stroke:#181818;stroke-width:0.5;"/><ellipse cx="206" cy="75.6211" fill="#E2E2F0" rx="12" ry="12" style="stroke:#181818;stroke-width:0.5;"/><path d="M272,81.6211 L329,81.6211 C334,81.6211 334,94.8652 334,94.8652 C334,94.8652 334,108.1094 329,108.1094 L272,108.1094 C267,108.1094 267,94.8652 267,94.8652 C267,94.8652 267,81.6211 272,81.6211 " fill="#E2E2F0" style="stroke:#181818;stroke-width:0.5;"/><path d="M329,81.6211 C324,81.6211 324,94.8652 324,94.8652 C324,108.1094 329,108.1094 329,108.1094 " fill="none" style="stroke:#181818;stroke-width:0.5;"/><text fill="#000000" font-family="sans-serif" font-size="14" lengthAdjust="spacing" textLength="47" x="272" y="100.1563">Feeder</text><text fill="#000000" font-family="sans-serif" font-size="14" lengthAdjust="spacing" textLength="88" x="399.5" y="105.1563">Pantry Cloud</text><path d="M428.5,55.6211 C428.5,45.6211 446.5,45.6211 446.5,45.6211 C446.5,45.6211 464.5,45.6211 464.5,55.6211 L464.5,81.6211 C464.5,91.6211 446.5,91.6211 446.5,91.6211 C446.5,91.6211 428.5,91.6211 428.5,81.6211 L428.5,55.6211 " fill="#E2E2F0" style="stroke:#181818;stroke-width:1.5;"/><path d="M428.5,55.6211 C428.5,65.6211 446.5,65.6211 446.5,65.6211 C446.5,65.6211 464.5,65.6211 464.5,55.6211 " fill="none" style="stroke:#181818;stroke-width:1.5;"/><text fill="#000000" font-family="sans-serif" font-size="14" lengthAdjust="spacing" textLength="61" x="560" y="105.1563">UI Server</text><ellipse cx="593.5" cy="75.6211" fill="#E2E2F0" rx="12" ry="12" style="stroke:#181818;stroke-width:0.5;"/><polygon fill="#181818" points="589.5,63.6211,595.5,58.6211,593.5,63.6211,595.5,68.6211,589.5,63.6211" style="stroke:#181818;stroke-width:1.0;"/><rect fill="#E2E2F0" height="30.4883" rx="2.5" ry="2.5" style="stroke:#181818;stroke-width:0.5;" width="76" x="761.5" y="76.6211"/><text fill="#000000" font-family="sans-serif" font-size="14" lengthAdjust="spacing" textLength="62" x="768.5" y="97.1563">Smart TV</text><rect fill="#E2E2F0" height="30.4883" rx="2.5" ry="2.5" style="stroke:#181818;stroke-width:0.5;" width="113" x="15" y="412.6621"/><text fill="#000000" font-family="sans-serif" font-size="14" lengthAdjust="spacing" textLength="99" x="22" y="433.1973">Hotwheels Car</text><text fill="#000000" font-family="sans-serif" font-size="14" lengthAdjust="spacing" textLength="113" x="138" y="458.1973">Arduino UNO R4</text><path d="M177,416.6621 L177,440.6621 M177,428.6621 L194,428.6621 " fill="none" style="stroke:#181818;stroke-width:0.5;"/><ellipse cx="206" cy="428.6621" fill="#E2E2F0" rx="12" ry="12" style="stroke:#181818;stroke-width:0.5;"/><path d="M272,412.6621 L329,412.6621 C334,412.6621 334,425.9063 334,425.9063 C334,425.9063 334,439.1504 329,439.1504 L272,439.1504 C267,439.1504 267,425.9063 267,425.9063 C267,425.9063 267,412.6621 272,412.6621 " fill="#E2E2F0" style="stroke:#181818;stroke-width:0.5;"/><path d="M329,412.6621 C324,412.6621 324,425.9063 324,425.9063 C324,439.1504 329,439.1504 329,439.1504 " fill="none" style="stroke:#181818;stroke-width:0.5;"/><text fill="#000000" font-family="sans-serif" font-size="14" lengthAdjust="spacing" textLength="47" x="272" y="431.1973">Feeder</text><text fill="#000000" font-family="sans-serif" font-size="14" lengthAdjust="spacing" textLength="88" x="399.5" y="472.1973">Pantry Cloud</text><path d="M428.5,422.6621 C428.5,412.6621 446.5,412.6621 446.5,412.6621 C446.5,412.6621 464.5,412.6621 464.5,422.6621 L464.5,448.6621 C464.5,458.6621 446.5,458.6621 446.5,458.6621 C446.5,458.6621 428.5,458.6621 428.5,448.6621 L428.5,422.6621 " fill="#E2E2F0" style="stroke:#181818;stroke-width:1.5;"/><path d="M428.5,422.6621 C428.5,432.6621 446.5,432.6621 446.5,432.6621 C446.5,432.6621 464.5,432.6621 464.5,422.6621 " fill="none" style="stroke:#181818;stroke-width:1.5;"/><text fill="#000000" font-family="sans-serif" font-size="14" lengthAdjust="spacing" textLength="61" x="560" y="458.1973">UI Server</text><ellipse cx="593.5" cy="428.6621" fill="#E2E2F0" rx="12" ry="12" style="stroke:#181818;stroke-width:0.5;"/><polygon fill="#181818" points="589.5,416.6621,595.5,411.6621,593.5,416.6621,595.5,421.6621,589.5,416.6621" style="stroke:#181818;stroke-width:1.0;"/><rect fill="#E2E2F0" height="30.4883" rx="2.5" ry="2.5" style="stroke:#181818;stroke-width:0.5;" width="76" x="761.5" y="412.6621"/><text fill="#000000" font-family="sans-serif" font-size="14" lengthAdjust="spacing" textLength="62" x="768.5" y="433.1973">Smart TV</text><polygon fill="#FF0000" points="186.2507,151.9017,195.5,157.4199,184.9966,159.8028,189.5742,156.4793" style="stroke:#FF0000;stroke-width:1.0;"/><line style="stroke:#FF0000;stroke-width:1.0;" x1="71.5" x2="195.5" y1="137.4199" y2="157.4199"/><text fill="#000000" font-family="sans-serif" font-size="13" lengthAdjust="spacing" textLength="64" x="78.5" y="132.6777">via Sensor</text><polygon fill="#FF0000" points="289.4458,200.8977,298.5,206.7305,287.9209,208.751,292.61,205.5868" style="stroke:#FF0000;stroke-width:1.0;"/><line style="stroke:#FF0000;stroke-width:1.0;" x1="197.5" x2="298.5" y1="186.7305" y2="206.7305"/><text fill="#000000" font-family="sans-serif" font-size="13" lengthAdjust="spacing" textLength="67" x="204.5" y="181.9883">websocket</text><polygon fill="#FF0000" points="435.1354,250.7208,444.5,256.041,434.0497,258.6468,438.5555,255.2267" style="stroke:#FF0000;stroke-width:1.0;"/><line style="stroke:#FF0000;stroke-width:1.0;" x1="300.5" x2="444.5" y1="236.041" y2="256.041"/><text fill="#000000" font-family="sans-serif" font-size="13" lengthAdjust="spacing" textLength="122" x="307.5" y="231.2988">store speed as json</text><polygon fill="#008000" points="456.8695,300.04,447.5,305.3516,457.948,307.9669,453.4452,304.5427" style="stroke:#008000;stroke-width:1.0;"/><line style="stroke:#008000;stroke-width:1.0;" x1="592.5" x2="446.5" y1="285.3516" y2="305.3516"/><text fill="#000000" font-family="sans-serif" font-size="13" lengthAdjust="spacing" textLength="123" x="463.5" y="280.6094">poll for speed entry</text><polygon fill="#008000" points="788.4458,388.8293,797.5,394.6621,786.9209,396.6826,791.61,393.5184" style="stroke:#008000;stroke-width:1.0;"/><line style="stroke:#008000;stroke-width:1.0;" x1="593.5" x2="797.5" y1="354.6621" y2="394.6621"/><text fill="#000000" font-family="sans-serif" font-size="13" lengthAdjust="spacing" textLength="182" x="600.5" y="349.9199">Push speed to browser on TV</text><!--SRC=[RP3DJiCm48JlVeeblS012Q6UUa22Ia0b11LDSa4Sd7X90gathEq6U7esFss9nCdsw9lPMPyqh8kj1e_q0vu3AfNH5y3ieIfAVrEBq6ZsLLursdg8xict9MBjOAav0ktWe8WnMAFv6w9hDg6o1CdZ4ppFUsoK_gRVCQ9Ldm43GdIBQ7187AuAhG6XbT5UPze9ivOA4h-iAPYU70ILannKGvIiO8Ey6tEIrV2ORh3PoWlYj4VYz3167LSxVvancjUhqykBitrnMC2kqX9l7R7QYnDow2rWYvcZ_0Czg56RSECQ2t2U6C4rmdHbtXrPjI_TMOhkWoQc1JHKr_16FDgm_u3_J7CnnQbCMGTNZhGdo9XQ9oJPRlbV]--></g></svg>